<svg width="155" height="132" viewBox="0 0 155 132" fill="none" xmlns="http://www.w3.org/2000/svg">
<g clip-path="url(#clip0_570_78)">
<path d="M104.583 0.243612C109.687 0.994354 116.665 3.06695 118.798 3.7408C121.515 4.67511 120.857 3.67281 121.631 4.0792C123.176 4.93259 125.363 6.50091 127.888 9.18699C130.369 11.9849 134.93 13.5148 145.15 32.7964C149.697 41.3749 152.585 48.1097 153.463 54.3435C154.208 59.6328 155.619 74.7356 154.259 86.3959C153.587 92.1534 152.081 101.634 147.259 107.406C143.891 111.439 141.556 115.611 134.043 119.602C128.427 122.585 117.61 128.191 106.471 129.632C98.3942 130.677 83.8591 133.166 65.5375 130.016C47.2563 126.872 36.2344 124.281 31.9387 122.14C26.1817 119.271 20.2075 116.556 16.1977 112.332C7.02319 102.666 0.538252 93.8059 0.180157 82.8753C-0.134974 73.2562 -0.139386 65.4498 1.02058 60.4421C2.6288 53.4993 4.95961 45.217 9.92495 38.1853C14.5102 31.6918 17.9873 27.3151 22.468 24.4078C30.0043 19.5178 41.1876 12.3902 57.335 7.2618C66.2101 4.44307 76.7208 1.67879 84.2069 0.981389C95.751 -0.0940662 101.601 -0.194862 104.583 0.243612Z" stroke="#EFEED5" stroke-width="2.5" stroke-linecap="round"/>
<path d="M108.095 20.9182C106.565 20.4292 101.558 18.925 97.8959 18.3802C95.7568 18.0619 91.5595 18.1351 83.2768 18.9156C77.9057 19.4217 70.3646 21.4279 63.9969 23.4736C52.4115 27.1955 44.3877 32.3683 38.9806 35.9172C35.7658 38.0272 33.2711 41.2036 29.9813 45.9162C26.4188 51.0194 24.7465 57.0303 23.5926 62.069C22.7603 65.7033 22.7635 71.3688 22.9896 78.3498C23.2465 86.2826 27.8993 92.713 34.4818 99.7279C37.3588 102.794 41.6451 104.764 45.7756 106.846C48.8577 108.4 56.7656 110.28 69.882 112.562C83.0273 114.848 93.4559 113.041 99.2508 112.283C107.243 111.238 115.004 107.169 119.033 105.004C124.423 102.108 126.099 99.0798 128.515 96.1531C131.975 91.9636 133.056 85.0833 133.537 80.9049C134.513 72.4424 133.501 61.4817 132.966 57.643C132.337 53.1188 130.264 48.2311 127.002 42.0052C119.669 28.0117 116.397 26.9014 114.617 24.8708C112.806 22.9214 111.237 21.7832 110.128 21.1638C109.572 20.8689 108.308 21.0664 106.358 20.3883" stroke="#EFEED5" stroke-width="2.5" stroke-linecap="round"/>
<path d="M103.221 89.4189C103.221 88.2158 103.659 85.32 104.823 84.3624C105.418 83.8725 106.548 84.0279 107.351 84.291C108.154 84.5541 108.731 85.0873 109.028 86.1071C109.74 88.552 108.935 90.8055 108.039 92.0851C107.111 93.4096 105.483 94.193 103.826 94.5335C103.004 94.7026 102.134 94.3399 101.646 93.396C100.401 90.9891 101.409 88.3896 102.45 87.0928C102.959 86.4593 103.733 86.088 104.409 86.116C105.084 86.144 105.715 86.637 106.04 87.3953C106.365 88.1537 106.365 89.1626 105.949 90.0302C105.533 90.8979 104.7 91.5937 103.95 91.6722C103.2 91.7507 102.558 91.1908 102.38 90.5176C102.203 89.8443 102.509 89.0748 103.021 88.4146C103.532 87.7545 104.24 87.2271 105.025 86.9042C105.811 86.5813 106.653 86.4788 107.087 87.0875C107.521 87.6961 107.521 89.0189 107.263 90.0656C107.004 91.1122 106.486 91.8425 105.769 92.2795C105.051 92.7165 104.15 92.8381 103.407 92.5906C101.88 92.0819 101.336 90.3659 101.028 88.8575C100.868 88.0736 100.898 87.2257 101.219 86.5233C101.539 85.8209 102.198 85.283 102.974 84.946C103.751 84.6091 104.624 84.4894 105.338 84.748C106.053 85.0065 106.583 85.6469 106.859 86.4223C107.136 87.1977 107.144 88.0889 106.875 88.8408C106.062 90.1786 104.736 91.2865 103.147 92.0815C102.322 92.3719 101.458 92.4332 100.569 92.4963" stroke="#EFEED5" stroke-width="2.5" stroke-linecap="round"/>
</g>
<defs>
<clipPath id="clip0_570_78">
<rect width="155" height="132" fill="white"/>
</clipPath>
</defs>
</svg>
