<svg width="43" height="38" viewBox="0 0 43 38" fill="none" xmlns="http://www.w3.org/2000/svg">
<path d="M38.5788 3.95654C37.5785 2.95584 36.3909 2.16201 35.0838 1.62041C33.7767 1.07881 32.3757 0.800049 30.9609 0.800049C29.546 0.800049 28.145 1.07881 26.8379 1.62041C25.5308 2.16201 24.3432 2.95584 23.3429 3.95654L21.2671 6.03237L19.1913 3.95654C17.1709 1.93614 14.4306 0.801096 11.5734 0.801096C8.71608 0.801096 5.97583 1.93614 3.95543 3.95654C1.93504 5.97694 0.799988 8.71718 0.799988 11.5745C0.799988 14.4317 1.93504 17.172 3.95543 19.1924L21.2671 36.504L38.5788 19.1924C39.5795 18.1921 40.3733 17.0046 40.9149 15.6974C41.4565 14.3903 41.7353 12.9893 41.7353 11.5745C41.7353 10.1596 41.4565 8.75858 40.9149 7.45147C40.3733 6.14436 39.5795 4.95677 38.5788 3.95654Z" stroke="#1E1E1E" stroke-width="1.6" stroke-linecap="round" stroke-linejoin="round"/>
</svg>
