<svg width="22" height="20" viewBox="0 0 22 20" fill="none" xmlns="http://www.w3.org/2000/svg">
<path d="M19.2875 2.34471C18.798 1.85501 18.2168 1.46654 17.5772 1.2015C16.9375 0.936465 16.2519 0.800049 15.5596 0.800049C14.8672 0.800049 14.1816 0.936465 13.5419 1.2015C12.9023 1.46654 12.3211 1.85501 11.8316 2.34471L10.8158 3.36055L9.79998 2.34471C8.81127 1.35601 7.4703 0.800561 6.07206 0.800561C4.67382 0.800561 3.33285 1.35601 2.34414 2.34471C1.35544 3.33342 0.799988 4.67439 0.799988 6.07263C0.799988 7.47087 1.35544 8.81184 2.34414 9.80055L10.8158 18.2722L19.2875 9.80055C19.7772 9.31107 20.1656 8.72991 20.4307 8.09026C20.6957 7.45061 20.8321 6.76501 20.8321 6.07263C20.8321 5.38025 20.6957 4.69465 20.4307 4.055C20.1656 3.41535 19.7772 2.83419 19.2875 2.34471Z" fill="#EFEED5" stroke="#EFEED5" stroke-width="1.6" stroke-linecap="round" stroke-linejoin="round"/>
</svg>
