<svg width="45" height="38" viewBox="0 0 45 38" fill="none" xmlns="http://www.w3.org/2000/svg">
<path d="M1 1H8.66667L13.8033 23.8746C13.9786 24.6611 14.4587 25.3676 15.1595 25.8704C15.8603 26.3733 16.7372 26.6404 17.6367 26.625H36.2667C37.1662 26.6404 38.0431 26.3733 38.7439 25.8704C39.4447 25.3676 39.9247 24.6611 40.1 23.8746L43.1667 9.54167H10.5833M18.25 35.1667C18.25 36.1102 17.3919 36.875 16.3333 36.875C15.2748 36.875 14.4167 36.1102 14.4167 35.1667C14.4167 34.2232 15.2748 33.4583 16.3333 33.4583C17.3919 33.4583 18.25 34.2232 18.25 35.1667ZM39.3333 35.1667C39.3333 36.1102 38.4752 36.875 37.4167 36.875C36.3581 36.875 35.5 36.1102 35.5 35.1667C35.5 34.2232 36.3581 33.4583 37.4167 33.4583C38.4752 33.4583 39.3333 34.2232 39.3333 35.1667Z" stroke="#1E1E1E" stroke-width="2" stroke-linecap="round" stroke-linejoin="round"/>
</svg>
