<svg width="142" height="130" viewBox="0 0 142 130" fill="none" xmlns="http://www.w3.org/2000/svg">
<g clip-path="url(#clip0_570_84)">
<path d="M84.2488 44.1329C84.2488 41.4207 86.8826 31.163 91.4672 22.4471C95.7765 14.2545 103.248 7.40378 112.237 3.19497C121.434 -1.11197 130.229 -0.144389 134.912 0.853589C145.24 3.05436 142.421 22.5959 138.098 33.142C134.251 42.5257 121.142 45.435 111.068 47.9219C101.348 50.3213 91.0016 49.5361 81.1748 51.7994C69.2816 54.5386 66.0201 66.9763 65.0144 76.258C64.3121 82.7395 64.1914 89.2599 63.0622 94.3086C61.2788 102.283 47.9364 105.02 38.2276 107.265C28.3794 109.542 18.0769 111.207 10.0392 115.851C8.22604 117.331 6.45629 118.914 5.03712 120.604C3.61795 122.295 2.60299 124.044 0 130" stroke="#EFEED5" stroke-width="2.5" stroke-linecap="round"/>
</g>
<defs>
<clipPath id="clip0_570_84">
<rect width="142" height="130" fill="white"/>
</clipPath>
</defs>
</svg>
