<svg width="207" height="152" viewBox="0 0 207 152" fill="none" xmlns="http://www.w3.org/2000/svg">
<path d="M58.4721 127.698C58.4721 127.698 52.3702 125.597 51.0138 131.634C51.0138 131.634 50.1095 139.113 56.8916 137.277C56.8916 137.277 58.9243 137.215 62.0892 132.454C62.0892 132.454 73.9549 129.269 72.3706 116.278C72.3706 116.278 68.7535 102.498 54.5169 108.927C54.5169 108.927 47.1726 112.338 45.364 119.424C45.364 119.424 35.3828 105.203 22.3773 111.094C9.37556 116.984 8.26612 131.351 8.26612 131.351C8.26612 131.351 7.47203 146.45 21.1083 148.661C21.1083 148.661 38.0729 155.108 59.479 147.002C80.8851 138.901 89.2743 120.329 90.0798 117.721C90.8663 115.18 102.694 87.7302 79.6161 63.2149C58.6735 40.9676 33.4755 48.4819 33.4755 48.4819C33.4755 48.4819 18.0953 52.7178 16.9859 63.3958C15.8764 74.0738 22.6927 74.2591 22.6927 74.2591C22.6927 74.2591 42.5144 73.7076 51.7091 53.084C51.7091 53.084 63.9168 27.7657 49.646 8.88944C35.3752 -9.9868 13.0192 8.88944 13.0192 8.88944C13.0192 8.88944 2.23638 17.6348 0.492432 27.5804C0.492432 27.5804 7.78739 8.24523 33.9504 3.45778C33.9504 3.45778 48.2212 4.00933 52.184 24.6329C56.1469 45.2564 43.9392 58.8819 43.9392 58.8819C43.9392 58.8819 32.3623 73.059 22.0581 70.8528C22.0581 70.8528 13.3384 64.7769 29.0339 54.8313C44.7333 44.8858 68.8333 59.2526 68.8333 59.2526C68.8333 59.2526 85.9574 69.0128 88.9704 88.3479C91.9833 107.683 84.5288 120.391 84.5288 120.391C84.5288 120.391 71.7702 138.949 62.0056 141.261C52.241 143.574 31.4124 151.882 15.2381 140.463C15.2381 140.463 5.24935 132.176 19.201 117.443C33.1526 102.71 45.8389 127.755 45.8389 127.755C45.8389 127.755 47.2675 110.631 63.7572 111.734C63.7572 111.734 71.6867 114.862 68.5141 122.968C65.3416 131.073 58.4645 127.689 58.4645 127.689L58.4721 127.698Z" fill="#4F3419" stroke="#4F3419" stroke-miterlimit="10"/>
<path d="M123.501 118.651C123.02 112.362 122.936 104.2 122.603 96.8958C122.603 96.8958 102.903 89.3325 96.7434 114.934C90.5879 140.541 109.304 142.768 109.304 142.768C109.304 142.768 117.796 144.494 121.736 122.381C121.736 122.381 124.716 137.852 131.962 143.457C139.207 149.061 124.458 131.184 123.501 118.647V118.651ZM109.304 138.21C96.4973 138.21 99.2079 119.653 99.2079 119.653C104.379 96.1489 119.401 99.2216 119.401 99.2216C119.401 99.2216 122.111 138.21 109.304 138.21Z" fill="#4F3419" stroke="#4F3419" stroke-miterlimit="10"/>
<path d="M206.323 106.586C205.421 92.7948 191.448 94.617 191.448 94.617C191.448 94.617 179.506 95.6576 177.026 114.397C174.547 133.133 179.506 139.258 185.14 141.203C190.775 143.148 203.231 140.571 203.171 137.998C203.11 135.425 181.536 149.739 179.281 118.797C179.281 118.797 207.228 120.386 206.323 106.591V106.586ZM192.578 98.5203C201.144 96.6894 205.197 104.246 202.041 107.89C198.885 111.535 189.604 116.193 181.038 113.589C181.038 113.589 184.007 100.351 192.574 98.5203H192.578Z" fill="#4F3419" stroke="#4F3419" stroke-miterlimit="10"/>
<path d="M151.645 96.4424C153.634 96.1213 155.469 96.6912 157.035 97.6475C158.603 98.6059 159.876 99.9392 160.711 101.088C161.129 101.662 161.427 102.177 161.597 102.562C161.602 102.573 161.606 102.586 161.611 102.597C161.327 102.469 160.964 102.283 160.51 102.055C159.456 101.524 158.006 100.826 156.348 100.456C154.685 100.085 152.793 100.038 150.865 100.826C148.936 101.614 147.025 103.216 145.285 106.041L145.271 106.063L145.259 106.088L145.258 106.089C145.258 106.09 145.258 106.091 145.257 106.092C145.256 106.094 145.255 106.097 145.253 106.101C145.25 106.107 145.246 106.116 145.241 106.127C145.23 106.15 145.216 106.183 145.199 106.225C145.164 106.307 145.117 106.426 145.065 106.575C144.96 106.873 144.832 107.298 144.737 107.807C144.548 108.821 144.487 110.203 145.032 111.608C146.145 114.48 149.639 117.122 158.562 117.264C162.912 117.333 165.832 118.421 167.762 120.017C169.691 121.611 170.688 123.759 171.105 126.057C171.944 130.684 170.405 135.81 169.518 137.773C169.103 138.693 168.142 139.953 166.743 141.152C165.35 142.346 163.555 143.454 161.5 144.097C159.447 144.738 157.137 144.916 154.698 144.258C152.259 143.599 149.66 142.095 147.043 139.324C144.384 136.507 142.625 134.386 141.483 132.794C140.336 131.195 139.829 130.154 139.64 129.493C139.545 129.159 139.536 128.946 139.553 128.814C139.572 128.841 139.591 128.868 139.612 128.896C139.857 129.236 140.214 129.719 140.665 130.297C141.565 131.452 142.842 132.991 144.344 134.519C145.844 136.044 147.582 137.572 149.406 138.695C151.223 139.815 153.175 140.563 155.087 140.452C155.963 140.402 156.807 140.377 157.624 140.353C158.437 140.329 159.226 140.305 159.976 140.258C161.472 140.163 162.865 139.969 164.083 139.448C165.319 138.92 166.357 138.065 167.154 136.689C167.942 135.328 168.484 133.476 168.777 130.965C169.094 128.242 167.621 126.079 165.381 124.381C163.146 122.686 160.067 121.387 156.952 120.364C153.829 119.339 150.625 118.578 148.122 117.982C146.865 117.683 145.793 117.427 144.987 117.199C144.584 117.085 144.259 116.982 144.016 116.887C143.895 116.839 143.802 116.797 143.734 116.76C143.7 116.742 143.675 116.726 143.658 116.714C143.644 116.704 143.637 116.698 143.636 116.697C142.776 115.849 140.951 114.687 140.37 112.33C139.8 110.021 140.433 106.413 145.125 100.768C147.437 97.9863 149.658 96.7633 151.645 96.4424Z" fill="#4F3419" stroke="#4F3419"/>
</svg>
